<?xml version="1.0" encoding="utf-8"?>
<svg viewBox="0 0 24 9.282" xmlns="http://www.w3.org/2000/svg">
  <defs>
    <style>.cls-1{fill:#7bcdce;}.cls-2{fill:#37728d;}.cls-3{fill:#81cdce;}.cls-4{fill:#368daa;}.cls-5{fill:#367a93;}.cls-6{fill:#7f959f;}.cls-7{fill:#92cfce;}.cls-8{fill:#356b8c;}.cls-9{fill:#66788c;}.cls-10{fill:#3987a2;}.cls-11{fill:#6abac4;}.cls-12{fill:#99908e;}.cls-13{fill:#85c3c4;}.cls-14{fill:#3d94ad;}.cls-15{fill:#5a7a8e;}.cls-16{fill:#457e94;}.cls-17{fill:#599bad;}.cls-18{fill:#6a96a4;}.cls-19{fill:#80b3bb;}.cls-20{fill:#3d7890;}.cls-21{fill:#728593;}.cls-22{fill:#72acb5;}.cls-23{fill:#3a6d8b;}.cls-24{fill:#4c6f8d;}.cls-25{fill:#887d8a;}.cls-26{fill:#61a1af;}.cls-27{fill:#5a99aa;}.cls-28{font-size:22.94px;fill:#2b3990;font-family:Avenir-HeavyOblique, Avenir;font-weight:800;font-style:oblique;}</style>
  </defs>
  <g id="Layer_2" data-name="Layer 2" transform="matrix(0.070312, 0, 0, 0.070312, -0.004582, 0.003759)">
    <g id="Arvo">
      <path class="cls-1" d="M0,107.89s4.34-34.77,58.36-11a123.05,123.05,0,0,0,11.73,5.59c10.67,4.44,23.8,5.67,34.89-2.93,7.9-6.12,11.94-12.79,12.48-21.56a50.4,50.4,0,0,0-1.11-13.71A120.22,120.22,0,0,1,119,76.62c1,6.46,2.23,20.8-10.28,33.76s-32,9-68.33,9.59c-11.3.19-12.15,6-22.11,6.65S-.24,120.53,0,107.89Z"/>
      <path class="cls-2" d="M163.08,86c-1.42,4.51-2.83,9-4.27,13.62H144.25c.17-.53.3-1,.48-1.52Q155.37,68,166,37.93c1.43-4,3.34-5.39,7.62-5.4,3,0,6.05,0,9.07,0a1.38,1.38,0,0,1,1.6,1Q196.13,66.3,208,99.05a4,4,0,0,1,.11.56H193.6Q191.38,92.8,189.14,86Zm13.21-39.3-.38,0-9.09,27.69h18.59C182.34,65.09,179.32,55.88,176.29,46.68Z"/>
      <path class="cls-2" d="M340.86,74.09a27.57,27.57,0,0,1-1.95,12.48c-2.74,7-7.58,11.49-15,13.29a27.64,27.64,0,0,1-17-1.26C300.61,96.13,296.75,91.47,295,85a38.34,38.34,0,0,1-1.69-13.13c.48-6.32,1.59-12.52,5.83-17.61,3.9-4.67,8.9-6.91,15-7.4a30.6,30.6,0,0,1,11.38.91c8,2.37,12.33,8.21,14.35,15.89.88,3.35,1,6.9,1.46,10.36Zm-34.19-1a25.86,25.86,0,0,0,1.68,10.49,9.27,9.27,0,0,0,9.13,6.07c4.2-.06,8-3.1,9.23-7.93s1.74-9.65.47-14.5-3.51-8.55-9.2-8.87c-3.66-.21-6.68.81-8.74,3.92A17.48,17.48,0,0,0,306.67,73.06Z"/>
      <path class="cls-2" d="M266.93,84.2c1.12-3.84,2.12-7.25,3.11-10.67q2.88-10,5.75-20c1.24-4.28,3-5.6,7.52-5.6h9.09c-.34,1.05-.6,1.94-.91,2.82q-8.39,23.69-16.74,47.37a2,2,0,0,1-2.26,1.56c-3.64-.1-7.27-.06-10.91,0a1.47,1.47,0,0,1-1.7-1.14q-8.67-24.9-17.41-49.79c-.07-.2-.11-.42-.19-.72h14.37C260,59.94,263.41,71.84,266.93,84.2Z"/>
      <path class="cls-2" d="M240.81,47.77V61.58c-2.36.17-4.67.29-7,.5-5.21.49-8.23,3.61-8.39,9-.18,6-.09,12.08-.11,18.12,0,3.4,0,6.8,0,10.32H211.77a8.74,8.74,0,0,1-.12-1.07c0-8.44,0-16.89,0-25.33A27.61,27.61,0,0,1,215,59.68c3.59-6.48,9.41-9.68,16.42-11C234.41,48.17,237.53,48.09,240.81,47.77Z"/>
      <path class="cls-3" d="M40.4,25.56c1.09-2.16,2.12-4.36,3.29-6.49,2.26-4.12,4.22-8.48,7-12.23C57-1.7,69.33-2,76.32,4.61l.33,4.56c.07.88-.23,1.38-1.19,1.49-3.13.38-6.25.78-9.36,1.25a4.16,4.16,0,0,0-1.83.79c-1.48,1.09-2.93,2.24-4.33,3.43C58.27,17.54,56.66,19,55,20.47l-.35,0-.63.27c-2.13.76-4.26,1.52-6.39,2.26Z"/>
      <path class="cls-4" d="M50.6,81.53c-1.29,2.61-2.87,5.67-4.17,8.28a77.87,77.87,0,0,0-15-4c-7-.55-10.82-.32-16,1.32a19.69,19.69,0,0,0-3.94,1.42,8.27,8.27,0,0,1,1-1.85c1.75-1.86,3.59-3.66,5.59-5.67l-4.53-5,1.86-3.5c2.21.77,4.37,1.72,6.63,2.27C31.54,77.13,41.08,79.31,50.6,81.53Z"/>
      <path class="cls-5" d="M50.6,81.53c-9.52-2.22-19.06-4.4-28.57-6.7-2.26-.55-4.42-1.5-6.63-2.27q5.3-10,10.61-20.08c.91-1.7,1.94-3.34,2.92-5l.63.07,0,.27c-2.11,4-4.25,8.08-6.33,12.14-1.16,2.27-2.22,4.6-3.35,6.9-.78,1.61-1.61,3.2-2.38,4.82a2.3,2.3,0,0,0,0,1c.3.17.62.52.89.48,1.29-.2,2.56-.54,3.85-.78,8.41-1.55,16.81-3.12,25.22-4.64,3-.54,6.11-.94,9.17-1.41l-.3,4.49Z"/>
      <path class="cls-6" d="M91.92,26.85,99.54,38c-.1,2.41-.21,4.82-.31,7.23C93.12,41.65,87,38.05,80.9,34.42a4.16,4.16,0,0,0-4.89,0L75.35,31l9.58-4.51Z"/>
      <path class="cls-7" d="M55,20.47c1.63-1.45,3.24-2.93,4.91-4.34,1.4-1.19,2.85-2.34,4.33-3.43a4.16,4.16,0,0,1,1.83-.79c3.11-.47,6.23-.87,9.36-1.25,1-.11,1.26-.61,1.19-1.49l-.33-4.56a23,23,0,0,1,2.35,2.5c2.39,3.39,4.7,6.83,7,10.26a2.54,2.54,0,0,1,.22.74c-.31,2.5-.61,5-1,7.92L79.2,15.7l-2.37-4.81-.5.07c-1.56,2.9-3.14,5.78-4.66,8.69C71,20.85,70.54,22.1,70,23.33l-.62,0-4.45-.7a10.57,10.57,0,0,0-1.59-.6C60.56,21.51,57.79,21,55,20.47Z"/>
      <path class="cls-8" d="M65.45,60.83c-2.36.49-3.89,2.16-5.42,3.83-.39.43-.75.88-1.12,1.32H56.64c-.35-.51-.72-1-1-1.54-.64-1.12-1.89-2.37-1.71-3.36a9.15,9.15,0,0,1,2.44-5,5.42,5.42,0,0,0,1.88-3.35c.09-.46.22-.92.34-1.38.49-1.93.92-2.08,2.53-.83.42.32.78.72,1.21,1,3.7,2.61,7.42,5.19,11.13,7.79,3.1,2.17,6.2,4.37,9.3,6.55a2.26,2.26,0,0,1,0,.26l0,.39h-6c-1.13-1.17-2.21-2.39-3.41-3.48-2.1-1.91-4.46-3.15-7.44-2.4Z"/>
      <path class="cls-9" d="M112,87.26h-4.46l-.62-.33c-.13-3.69-.2-7.39-.41-11.08s-.58-7.24-.87-10.86c.67-.27,1.62-.95,2-.73,1.9,1.28,3.65,2.77,5.45,4.19l2.43,1.88A33.91,33.91,0,0,1,112,87.26Z"/>
      <path class="cls-10" d="M98.58,94.29q-6.14-8.1-12.28-16.18c1.08-.45,2.2-.82,3.22-1.37a31.75,31.75,0,0,0,2.74-1.89l2.52,1.59L106.54,87v.61c-1.78,1.4-3.57,2.76-5.31,4.2C100.3,92.54,99.46,93.44,98.58,94.29Z"/>
      <path class="cls-11" d="M29.56,47.54l-.63-.07a6,6,0,0,1,.34-1.19Q34.66,36.1,40.09,25.92a1.74,1.74,0,0,1,.31-.36L47.66,23c2.13-.74,4.26-1.5,6.39-2.26L37.89,38.41Z"/>
      <path class="cls-12" d="M99.23,45.27c.1-2.41.21-4.82.31-7.23,4.46,6.8,14,21.84,14,21.84-.57.08-1.15.14-1.71.24-2.08.35-4.15.72-6.22,1.08a5.65,5.65,0,0,1-.58-.92c-1.1-2.84-2.15-5.7-3.27-8.52-.79-2-1.68-3.91-2.52-5.86Z"/>
      <path class="cls-13" d="M79.2,15.7,84.94,26c.36-2.92.66-5.42,1-7.92l6,8.74-7-.37-2.71-.61L71.88,23.65a19.16,19.16,0,0,1,1.89-3.56,30.8,30.8,0,0,1,3.8-3.5A8.26,8.26,0,0,1,79.2,15.7Z"/>
      <path class="cls-14" d="M13.54,76.06l4.53,5c-2,2-3.84,3.81-5.59,5.67a8.27,8.27,0,0,0-1,1.85,28.34,28.34,0,0,0-7,5.1Z"/>
      <path class="cls-4" d="M92.26,74.85a31.75,31.75,0,0,1-2.74,1.89c-1,.55-2.14.92-3.22,1.37L80,70.47q1.65-1.8,3.32-3.58h.31c1.61,1.35,3.26,2.65,4.8,4.07C89.79,72.19,91,73.55,92.26,74.85Z"/>
      <path class="cls-15" d="M105.61,61.2c2.07-.36,4.14-.73,6.22-1.08.56-.1,1.14-.16,1.71-.24a52.58,52.58,0,0,1,1.91,10.45L113,68.45c-1.8-1.42-3.55-2.91-5.45-4.19-.34-.22-1.29.46-2,.73h0v-3.5A2.83,2.83,0,0,1,105.61,61.2Z"/>
      <path class="cls-2" d="M98.58,94.29c.88-.85,1.72-1.75,2.66-2.53,1.74-1.44,3.53-2.8,5.31-4.2-.32,1.16-.6,2.33-1,3.48-.6,2-1.25,3.9-1.88,5.84l-2.06,1.78Z"/>
      <path class="cls-16" d="M103.72,96.88C104.35,94.94,105,93,105.6,91c.35-1.15.63-2.32,1-3.48V87l.35,0,.62.33,3.22,2A41,41,0,0,1,103.72,96.88Z"/>
      <path class="cls-16" d="M83.35,66.89Q81.69,68.68,80,70.47l-3.37-3.89h6.67C83.34,66.69,83.34,66.79,83.35,66.89Z"/>
      <path class="cls-17" d="M56.64,66h2.27l-2.58,4.78.3-4.49A2.62,2.62,0,0,0,56.64,66Z"/>
      <path class="cls-18" d="M110.73,89.23l-3.22-2H112Z"/>
      <path class="cls-17" d="M29.56,47.54l8.33-9.13L54.05,20.77l.63-.27c0,.2,0,.4,0,.6a5.7,5.7,0,0,0-.6,1.18c-1,3.95-1.92,7.91-2.88,11.87a15.4,15.4,0,0,0-1.71,1.3c-.39.4-.6,1-1,1.43-1.14,1.41-2.32,2.78-3.48,4.18l-7.23,8.7-8.24-1.95Z"/>
      <path class="cls-19" d="M54.69,21.1c0-.2,0-.4,0-.6l.35,0c2.76.53,5.53,1,8.29,1.6a10.57,10.57,0,0,1,1.59.6,10.39,10.39,0,0,1-.85,1.62c-1.39,1.83-2.84,3.61-4.27,5.42L57.9,27.14Z"/>
      <path class="cls-2" d="M56.64,66a2.62,2.62,0,0,1,0,.28c-3.06.47-6.12.87-9.17,1.41-8.41,1.52-16.81,3.09-25.22,4.64-1.29.24-2.56.58-3.85.78-.27,0-.59-.31-.89-.48,2.17-1.45,4.37-2.87,6.52-4.37q10.68-7.45,21.31-15a4.1,4.1,0,0,0,.8-1.06L47.39,52c1.53-.31,3.07-.59,4.59-1,2.08-.5,4.17-1,6.22-1.64a2.45,2.45,0,0,0,1.27-1.17,33.34,33.34,0,0,0,1.33-3.35c.83-2.2,1.66-4.39,2.48-6.59l.32-.3c1.44,2,2.91,4,4.31,6Q75.35,54.8,82.73,65.65v.29c-3.1-2.18-6.2-4.38-9.3-6.55C69.72,56.79,66,54.21,62.3,51.6c-.43-.3-.79-.7-1.21-1-1.61-1.25-2-1.1-2.53.83-.12.46-.25.92-.34,1.38a5.42,5.42,0,0,1-1.88,3.35,9.15,9.15,0,0,0-2.44,5c-.18,1,1.07,2.24,1.71,3.36C55.92,65,56.29,65.48,56.64,66Z"/>
      <path class="cls-20" d="M46.13,52.23a4.1,4.1,0,0,1-.8,1.06Q34.7,60.79,24,68.25c-2.15,1.5-4.35,2.92-6.52,4.37a2.3,2.3,0,0,1,0-1c.77-1.62,1.6-3.21,2.38-4.82,1.13-2.3,2.19-4.63,3.35-6.9,2.08-4.06,4.22-8.1,6.33-12.14l8.24,1.95a6.91,6.91,0,0,0,.7.29Z"/>
      <path class="cls-21" d="M82.73,65.94v-.29a3.47,3.47,0,0,0,.16-1.17q-3.4-15-6.88-30a4.16,4.16,0,0,1,4.89,0c6.1,3.63,12.22,7.23,18.33,10.85,0,.21,0,.42,0,.63A9.67,9.67,0,0,0,98.1,47q-4.11,5.47-8.16,11c-2.11,2.87-4.19,5.77-6.29,8.65,0,.1,0,.21,0,.31h-.31c0-.1,0-.2,0-.31l-.59-.38A2.26,2.26,0,0,0,82.73,65.94Z"/>
      <path class="cls-16" d="M76,34.47q3.45,15,6.88,30a3.47,3.47,0,0,1-.16,1.17Q75.32,54.81,67.91,44c-1.4-2-2.87-4-4.31-6,0-.1,0-.2,0-.3l.35-.29L74.75,31h.6Z"/>
      <path class="cls-22" d="M75.35,31h-.6c-.28-.56-.52-1.14-.84-1.66-1.18-1.92-2.39-3.81-3.59-5.72l1.56,0,10.34,2.22,2.71.61Z"/>
      <path class="cls-22" d="M64,37.36l-.35.29-3.18-5.73-.65-2.21c1.43-1.81,2.88-3.59,4.27-5.42a10.39,10.39,0,0,0,.85-1.62l4.45.7c-.32,1-.58,2.1-1,3.11C66.94,30.12,65.44,33.74,64,37.36Z"/>
      <path class="cls-18" d="M64,37.36c1.47-3.62,3-7.24,4.41-10.88.4-1,.66-2.07,1-3.11l.62,0,.34.29c1.2,1.91,2.41,3.8,3.59,5.72.32.52.56,1.1.84,1.66Z"/>
      <path class="cls-3" d="M70.32,23.62,70,23.33c.56-1.23,1.06-2.48,1.69-3.68,1.52-2.91,3.1-5.79,4.66-8.69l.5-.07L79.2,15.7a8.26,8.26,0,0,0-1.63.89,30.8,30.8,0,0,0-3.8,3.5,19.16,19.16,0,0,0-1.89,3.56Z"/>
      <path class="cls-2" d="M82.74,66.2l.59.38H82.7Z"/>
      <path class="cls-23" d="M106.89,86.93l-.35,0L94.78,76.44a4.71,4.71,0,0,1,.84-.42c.32-.09.83.06,1-.12.74-.85,1.3-1.86,2.07-2.68,1.06-1.13,2.66-1.78,3-3.53,0-.11.37-.18.57-.22a2.34,2.34,0,0,0,1.87-2.7c-.26-1.54.58-1.54,1.48-1.78h0c.29,3.62.65,7.23.87,10.86S106.76,83.24,106.89,86.93Z"/>
      <path class="cls-24" d="M105.59,65c-.9.24-1.74.24-1.48,1.78a2.34,2.34,0,0,1-1.87,2.7c-.2,0-.55.11-.57.22-.34,1.75-1.94,2.4-3,3.53-.77.82-1.33,1.83-2.07,2.68-.15.18-.66,0-1,.12a4.71,4.71,0,0,0-.84.42l-2.52-1.59c-1.26-1.3-2.47-2.66-3.8-3.88-1.54-1.42-3.19-2.72-4.8-4.07,0-.1,0-.21,0-.31,3.73-.91,7.45-1.85,11.18-2.71,3.58-.84,7.17-1.6,10.76-2.39Z"/>
      <path class="cls-25" d="M105.59,61.49c-3.59.79-7.18,1.55-10.76,2.39-3.73.86-7.45,1.8-11.18,2.71,2.1-2.88,4.18-5.78,6.29-8.65Q94,52.44,98.1,47a9.67,9.67,0,0,1,1.14-1.07c.84,2,1.73,3.88,2.52,5.86,1.12,2.82,2.17,5.68,3.27,8.52a5.65,5.65,0,0,0,.58.92A2.83,2.83,0,0,0,105.59,61.49Z"/>
      <path class="cls-26" d="M59.79,29.71l.65,2.21q-2.55,4.68-5.08,9.38c-.65,1.19-1.25,2.41-1.9,3.6-.41.75-.22,1.07.63,1-.45.43-.88.88-1.34,1.29Q50.08,49.58,47.39,52l-1.26.28-7.6-2.18a6.91,6.91,0,0,1-.7-.29l7.23-8.7c1.16-1.4,2.34-2.77,3.48-4.18.36-.44.57-1,1-1.43a15.4,15.4,0,0,1,1.71-1.3L50,40.37c.59,0,.82,0,.9-.21,1.7-3.14,3.38-6.3,5.07-9.45.64-1.2,1.31-2.38,2-3.57Z"/>
      <path class="cls-22" d="M57.9,27.14c-.66,1.19-1.33,2.37-2,3.57-1.69,3.15-3.37,6.31-5.07,9.45-.08.16-.31.23-.9.21l1.25-6.22c1-4,1.9-7.92,2.88-11.87a5.7,5.7,0,0,1,.6-1.18Z"/>
      <path class="cls-20" d="M47.39,52q2.69-2.37,5.36-4.75c.46-.41.89-.86,1.34-1.29l9.19-7.66c-.82,2.2-1.65,4.39-2.48,6.59a33.34,33.34,0,0,1-1.33,3.35,2.45,2.45,0,0,1-1.27,1.17C56.15,50,54.06,50.5,52,51,50.46,51.36,48.92,51.64,47.39,52Z"/>
      <path class="cls-27" d="M63.28,38.25l-9.19,7.66c-.85.06-1-.26-.63-1,.65-1.19,1.25-2.41,1.9-3.6q2.52-4.69,5.08-9.38l3.18,5.73c0,.1,0,.2,0,.3Z"/>
      <text class="cls-28" transform="translate(254.01 126.11)" style="white-space: pre;">finance</text>
    </g>
  </g>
</svg>