<?xml version="1.0" encoding="utf-8"?>
<svg viewBox="0 0 24 7.957" fill="none" xmlns="http://www.w3.org/2000/svg">
  <path d="M 0.214 2.666 L 0.347 2.339 C 0.297 2.446 0.254 2.557 0.214 2.666 Z M 3.981 0 C 3.215 0.001 2.465 0.222 1.821 0.636 C 1.177 1.051 0.665 1.642 0.347 2.339 L 2.845 3.745 L 3.272 3.988 L 3.375 3.931 L 5.307 2.864 L 5.335 2.848 L 7.291 1.76 C 6.926 1.218 6.433 0.774 5.856 0.467 C 5.279 0.16 4.635 0 3.981 0 Z M 3.265 3.513 L 0.92 2.192 C 1.205 1.706 1.602 1.295 2.077 0.993 C 2.553 0.691 3.093 0.506 3.654 0.454 C 4.215 0.402 4.78 0.483 5.303 0.693 C 5.826 0.902 6.292 1.233 6.661 1.658 L 3.265 3.513 Z" fill="#00B0ED"/>
  <path d="M 6.902 6.019 L 0.734 2.557 L 0.35 2.336 C 0.285 2.481 0.228 2.63 0.181 2.783 C -0.092 3.658 -0.055 4.601 0.285 5.453 C 0.626 6.305 1.249 7.013 2.05 7.46 C 2.851 7.906 3.782 8.064 4.685 7.905 C 5.589 7.746 6.41 7.282 7.011 6.589 C 7.109 6.478 7.201 6.36 7.285 6.238 L 6.902 6.019 Z M 3.994 7.529 C 3.445 7.528 2.902 7.4 2.41 7.155 C 1.918 6.91 1.49 6.554 1.158 6.116 C 0.827 5.677 0.601 5.168 0.5 4.627 C 0.398 4.087 0.423 3.531 0.572 3.002 L 6.618 6.37 C 6.286 6.736 5.881 7.027 5.429 7.227 C 4.977 7.426 4.488 7.529 3.994 7.529 Z" fill="#FF0000"/>
  <path d="M 7.081 2.601 L 4.704 3.886 L 4.523 3.988 L 4.718 4.091 L 7.081 5.38 L 7.285 5.493 L 7.285 2.49 L 7.081 2.601 Z M 7.081 5.189 L 4.894 3.998 L 7.081 2.805 L 7.081 5.189 Z" fill="#FFCC2E"/>
  <path fill-rule="evenodd" clip-rule="evenodd" d="M 23.093 4.619 L 23.093 4.19 L 23.935 4.19 L 23.935 3.781 L 23.093 3.781 L 23.093 3.419 L 23.975 3.419 L 23.975 3.017 L 23.093 3.017 L 22.488 3.017 L 22.488 3.419 L 22.488 3.781 L 22.488 4.19 L 22.488 4.619 L 22.488 5.022 L 23.093 5.022 L 24 5.022 L 24 4.619 L 23.093 4.619 Z" fill="white"/>
  <path fill-rule="evenodd" clip-rule="evenodd" d="M 16.372 4.619 L 16.372 4.189 L 17.215 4.189 L 17.215 3.78 L 16.372 3.78 L 16.372 3.418 L 17.255 3.418 L 17.255 3.016 L 16.372 3.016 L 15.767 3.016 L 15.767 3.418 L 15.767 3.78 L 15.767 4.189 L 15.767 4.619 L 15.767 5.021 L 16.372 5.021 L 17.28 5.021 L 17.28 4.619 L 16.372 4.619 Z" fill="white"/>
  <path fill-rule="evenodd" clip-rule="evenodd" d="M 21.211 3.917 L 21.211 4.326 L 21.476 4.326 L 21.476 4.554 C 21.431 4.565 20.829 4.703 20.636 4.224 C 20.636 4.224 20.446 3.757 20.955 3.475 C 20.955 3.475 21.385 3.263 21.97 3.605 L 21.97 3.133 C 21.97 3.133 20.953 2.767 20.348 3.217 C 20.348 3.217 19.994 3.445 19.987 4.015 C 19.981 4.195 20.024 4.374 20.113 4.532 C 20.201 4.689 20.33 4.82 20.487 4.909 C 20.487 4.909 21.065 5.241 22.012 4.885 L 22.012 3.917 L 21.211 3.917 Z" fill="white"/>
  <path fill-rule="evenodd" clip-rule="evenodd" d="M 19.264 3.17 C 18.935 2.982 18.286 3.016 18.286 3.016 L 18.222 3.016 L 17.685 3.016 L 17.685 5.023 L 18.767 5.023 C 18.894 5.026 19.022 5.009 19.143 4.97 C 19.3 4.914 19.438 4.816 19.543 4.687 C 19.647 4.557 19.715 4.402 19.737 4.237 C 19.777 4.032 19.752 3.82 19.668 3.629 C 19.583 3.439 19.442 3.279 19.264 3.17 Z M 19.105 4.275 C 19.003 4.628 18.547 4.607 18.547 4.607 L 18.286 4.607 L 18.286 3.423 L 18.611 3.423 C 18.681 3.428 18.75 3.444 18.816 3.469 C 18.889 3.502 18.954 3.549 19.008 3.607 C 19.197 3.874 19.129 4.122 19.105 4.275 Z" fill="white"/>
  <path fill-rule="evenodd" clip-rule="evenodd" d="M 15.12 3.001 L 15.033 3.001 L 15.033 4.571 L 13.668 3.001 L 13.434 3.001 L 13.434 5.022 L 13.709 5.022 L 13.709 4.872 L 13.709 3.465 L 15.06 5.022 L 15.309 5.022 L 15.309 3.001 L 15.12 3.001 Z" fill="white"/>
  <path fill-rule="evenodd" clip-rule="evenodd" d="M 13.024 4.148 L 13.024 3.001 L 12.732 3.001 L 12.732 4.148 L 12.723 4.377 C 12.708 4.46 12.672 4.537 12.618 4.602 C 12.564 4.666 12.495 4.716 12.416 4.745 C 12.24 4.804 12.05 4.804 11.874 4.745 C 11.692 4.643 11.658 4.581 11.658 4.581 C 11.588 4.494 11.572 4.284 11.57 4.148 L 11.57 3.001 L 11.28 3.001 L 11.28 4.207 C 11.28 4.271 11.291 4.389 11.291 4.389 C 11.303 4.498 11.34 4.602 11.398 4.694 C 11.455 4.787 11.533 4.865 11.626 4.923 C 11.847 5.032 12.097 5.07 12.341 5.032 C 12.449 5.018 12.553 4.983 12.647 4.929 C 12.741 4.874 12.823 4.801 12.888 4.715 C 13.044 4.515 13.024 4.148 13.024 4.148 Z" fill="white"/>
  <path fill-rule="evenodd" clip-rule="evenodd" d="M 10.972 4.704 L 10.728 4.327 C 10.653 4.226 10.565 4.136 10.466 4.059 C 10.567 4.019 10.654 3.949 10.714 3.859 C 10.775 3.769 10.807 3.663 10.807 3.554 C 10.806 3.445 10.773 3.339 10.711 3.25 C 10.649 3.16 10.561 3.092 10.46 3.053 C 10.327 3.013 10.189 2.995 10.051 2.999 L 9.633 2.999 L 9.633 5.022 L 9.92 5.022 L 9.92 4.142 C 10.146 4.129 10.149 4.151 10.197 4.175 C 10.245 4.204 10.29 4.238 10.332 4.277 C 10.397 4.302 10.843 5.018 10.843 5.018 L 11.188 5.018 L 10.972 4.704 Z M 10.14 3.886 L 9.92 3.886 L 9.92 3.252 L 10.149 3.252 C 10.558 3.264 10.501 3.599 10.501 3.599 C 10.477 3.913 10.14 3.886 10.14 3.886 Z" fill="white"/>
  <path fill-rule="evenodd" clip-rule="evenodd" d="M 8.795 2.997 L 8.393 2.997 L 8.098 2.997 L 8.098 5.022 L 8.386 5.022 L 8.386 4.144 L 8.65 4.144 C 8.762 4.148 8.875 4.133 8.983 4.1 C 9.091 4.069 9.186 4.004 9.254 3.915 C 9.323 3.827 9.362 3.718 9.364 3.606 C 9.398 3.016 8.795 2.997 8.795 2.997 Z M 9.077 3.601 C 9.064 3.908 8.71 3.887 8.71 3.887 L 8.393 3.887 L 8.393 3.253 L 8.692 3.253 C 8.771 3.246 8.849 3.259 8.921 3.291 C 8.976 3.319 9.021 3.365 9.048 3.421 C 9.076 3.476 9.084 3.54 9.073 3.601 L 9.077 3.601 Z" fill="white"/>
</svg>