<svg id="Layer_1" data-name="Layer 1" xmlns="http://www.w3.org/2000/svg" viewBox="0 0 512 512"><title>under-construction-fence-glyph</title><path d="M501.68,93.44V215.23H10.33V93.44H501.68M512,83.12H0V225.55H512V83.12Z" fill="#434040"/><polygon points="129.52 93.44 10.33 212.65 10.33 215.23 39.03 215.23 160.82 93.44 129.52 93.44" fill="#434040"/><polygon points="191.96 93.44 70.18 215.23 101.48 215.23 223.26 93.44 191.96 93.44" fill="#434040"/><polygon points="10.33 93.44 10.33 119.06 35.94 93.44 10.33 93.44" fill="#434040"/><polygon points="254.4 93.44 132.61 215.23 163.92 215.23 285.71 93.44 254.4 93.44" fill="#434040"/><polygon points="67.08 93.44 10.33 150.2 10.33 181.5 98.39 93.44 67.08 93.44" fill="#434040"/><polygon points="476.12 215.23 501.68 189.67 501.68 158.38 444.82 215.23 476.12 215.23" fill="#434040"/><polygon points="316.84 93.44 195.06 215.23 226.36 215.23 348.14 93.44 316.84 93.44" fill="#434040"/><polygon points="441.71 93.44 319.94 215.23 351.24 215.23 473.03 93.44 441.71 93.44" fill="#434040"/><polygon points="413.68 215.23 501.68 127.23 501.68 95.95 382.38 215.23 413.68 215.23" fill="#434040"/><polygon points="379.27 93.44 257.49 215.23 288.81 215.23 410.58 93.44 379.27 93.44" fill="#434040"/><rect x="65.11" y="220.4" width="39.22" height="203.31" fill="#434040"/><rect x="407.26" y="220.91" width="39.22" height="207.97" fill="#434040"/></svg>