<svg width="552" height="183" viewBox="0 0 552 183" fill="none" xmlns="http://www.w3.org/2000/svg">
<path d="M4.92682 61.2545L7.98132 53.7357C6.83001 56.2028 5.84317 58.7404 4.92682 61.2545ZM91.4632 1.88959e-05C73.8627 0.0191188 56.6381 5.09363 41.8384 14.6199C27.0388 24.1461 15.2871 37.7231 7.98132 53.7357L65.3589 86.043L75.1803 91.635L77.53 90.3193L121.938 65.7893L122.572 65.4368L167.52 40.4369C159.128 27.9794 147.802 17.7759 134.539 10.7246C121.277 3.6733 106.484 -0.00962625 91.4632 1.88959e-05ZM75.0159 80.7093L21.1392 50.3523C27.6925 39.1929 36.8059 29.7521 47.7273 22.8094C58.6486 15.8666 71.0646 11.6209 83.9504 10.4227C96.8361 9.22461 109.822 11.1084 121.836 15.9186C133.85 20.7288 144.548 28.3274 153.047 38.0873L75.0159 80.7093Z" fill="#00B0ED"/>
<path d="M158.568 138.298L16.863 58.7405L8.0519 53.6653C6.53706 57.0024 5.23435 60.4318 4.15154 63.9331C-2.11488 84.0532 -1.2663 105.717 6.55473 125.285C14.3758 144.853 28.6927 161.134 47.1007 171.392C65.5087 181.65 86.8862 185.261 107.642 181.618C128.398 177.975 147.268 167.3 161.082 151.386C163.335 148.823 165.437 146.132 167.379 143.327L158.568 138.298ZM91.7687 172.979C79.1383 172.964 66.6829 170.025 55.3787 164.391C44.0745 158.757 34.2287 150.581 26.613 140.505C18.9973 130.429 13.8187 118.726 11.483 106.314C9.14735 93.9012 9.71811 81.1163 13.1506 68.9613L152.06 146.358C144.418 154.749 135.108 161.452 124.726 166.036C114.344 170.62 103.118 172.985 91.7687 172.979Z" fill="#FF0000"/>
<path d="M162.68 59.7507L108.075 89.2854L103.917 91.635L108.404 93.9846L162.68 123.613L167.38 126.198V57.2131L162.68 59.7507ZM162.68 119.22L112.446 91.8465L162.68 64.45V119.22Z" fill="#FFCC2E"/>
<path fill-rule="evenodd" clip-rule="evenodd" d="M530.559 106.132V96.2638H549.897V86.8653H530.559V78.5477H550.837V69.3137H530.559H516.673V78.5477V86.8653V96.2638V106.132V115.39H530.559H551.401V106.132H530.559Z" fill="white"/>
<path fill-rule="evenodd" clip-rule="evenodd" d="M376.143 106.132V96.2403H395.504V86.8418H376.143V78.5241H396.443V69.2902H376.143H362.256V78.5241V86.8418V96.2403V106.132V115.366H376.143H397.007V106.132H376.143Z" fill="white"/>
<path fill-rule="evenodd" clip-rule="evenodd" d="M487.326 89.9903V99.3888H493.412V104.628C492.378 104.887 478.539 108.059 474.122 97.0392C474.122 97.0392 469.751 86.3249 481.452 79.84C481.452 79.84 491.321 74.9763 504.761 82.824V71.9923C504.761 71.9923 481.405 63.5806 467.496 73.9189C467.496 73.9189 459.366 79.1586 459.202 92.2459C459.065 96.3907 460.063 100.494 462.088 104.113C464.113 107.732 467.087 110.73 470.691 112.782C470.691 112.782 483.967 120.418 505.724 112.241V89.9903H487.326Z" fill="white"/>
<path fill-rule="evenodd" clip-rule="evenodd" d="M442.59 72.8382C435.024 68.5149 420.128 69.2902 420.128 69.2902H418.647H406.312V115.413H431.171C434.101 115.484 437.022 115.071 439.817 114.191C443.414 112.897 446.588 110.643 448.994 107.673C451.401 104.703 452.948 101.131 453.469 97.3447C454.371 92.6379 453.813 87.7677 451.868 83.3873C449.924 79.007 446.686 75.326 442.59 72.8382ZM438.948 98.214C436.598 106.32 426.119 105.85 426.119 105.85H420.128V78.6417H427.599C429.208 78.7676 430.791 79.1236 432.299 79.699C433.966 80.4538 435.468 81.532 436.716 82.871C441.063 89.0035 439.489 94.7131 438.948 98.214Z" fill="white"/>
<path fill-rule="evenodd" clip-rule="evenodd" d="M347.384 68.9377H345.386V105.028L314.019 68.9377H308.638V115.39H314.959V111.936V79.605L345.997 115.39H351.73V68.9377H347.384Z" fill="white"/>
<path fill-rule="evenodd" clip-rule="evenodd" d="M299.216 95.3004V68.9377H292.52V95.3004L292.308 100.564C291.967 102.463 291.138 104.242 289.902 105.725C288.667 107.208 287.067 108.344 285.26 109.022C281.219 110.376 276.847 110.376 272.807 109.022C268.624 106.673 267.849 105.239 267.849 105.239C266.228 103.242 265.875 98.4254 265.828 95.3004V68.9377H259.155V96.6632C259.155 98.12 259.414 100.846 259.414 100.846C259.695 103.335 260.531 105.729 261.861 107.852C263.19 109.975 264.98 111.772 267.097 113.111C272.193 115.612 277.936 116.482 283.544 115.601C286.018 115.294 288.405 114.491 290.561 113.239C292.717 111.988 294.598 110.314 296.091 108.317C299.686 103.736 299.216 95.3004 299.216 95.3004Z" fill="white"/>
<path fill-rule="evenodd" clip-rule="evenodd" d="M252.083 108.082L246.467 99.4123C244.743 97.1034 242.721 95.0333 240.452 93.2563C242.775 92.3353 244.766 90.7344 246.164 88.6631C247.561 86.5918 248.301 84.1467 248.286 81.648C248.271 79.1492 247.501 76.7133 246.078 74.6592C244.655 72.6051 242.645 71.0286 240.311 70.1361C237.263 69.2343 234.092 68.8142 230.913 68.8908H221.327V115.39H227.905V95.1595C233.098 94.854 233.169 95.3709 234.273 95.9113C235.384 96.5868 236.423 97.3741 237.374 98.261C238.878 98.8484 249.122 115.296 249.122 115.296H257.041L252.083 108.082ZM232.957 89.2854H227.905V74.7178H233.169C242.567 74.9998 241.251 82.683 241.251 82.683C240.711 89.8963 232.957 89.2854 232.957 89.2854Z" fill="white"/>
<path fill-rule="evenodd" clip-rule="evenodd" d="M202.06 68.8673H192.826H186.059V115.39H192.661V95.2065H198.723C201.314 95.2908 203.902 94.9495 206.383 94.1962C208.861 93.4824 211.046 91.9972 212.622 89.9563C214.198 87.9155 215.083 85.4253 215.147 82.8475C215.922 69.2902 202.06 68.8673 202.06 68.8673ZM208.545 82.73C208.239 89.7789 200.109 89.309 200.109 89.309H192.826V74.7414H199.71C201.503 74.5677 203.309 74.8675 204.95 75.6107C206.223 76.2607 207.252 77.3053 207.883 78.5885C208.514 79.8716 208.713 81.3245 208.451 82.73H208.545Z" fill="white"/>
</svg>
